<svg xmlns="http://www.w3.org/2000/svg" width="12.979" height="17.996" viewBox="0 0 12.979 17.996">
  <path id="Path_68491" data-name="Path 68491" d="M11.5,5.461H9.223V3.036A3.143,3.143,0,0,0,5.989,0,3.143,3.143,0,0,0,2.755,3.036V5.461H.48a.49.49,0,0,0-.481.5v6.368A4.6,4.6,0,0,0,4.506,17H7.472a4.6,4.6,0,0,0,4.507-4.668V5.959a.49.49,0,0,0-.481-.5ZM3.717,3.036A2.168,2.168,0,0,1,5.989,1a2.168,2.168,0,0,1,2.273,2.04V5.461H3.717Zm7.3,9.291A3.615,3.615,0,0,1,7.472,16H4.506A3.615,3.615,0,0,1,.961,12.327V6.457H11.017Zm0,0" transform="translate(0.5 0.5)" fill="#d9ccce" stroke="#f6720c" stroke-width="1"/>
</svg>
